# xmcd
#
# Track frame offsets: 
#        300
#        14271
#        33819
#        52102
#        72856
#        92522
#        123775
#        144500
#        169003
#
# Disc length: 2560 seconds
#
# Revision: 3
# Processed by: cddbd v1.5.2PL0 Copyright (c) Steve Scherf et al.
# Submitted via: ExactAudioCopy v1.0b1
#
DISCID=6e09fc09
DTITLE=Otis Rush - Blues Live!
DYEAR=1900
DGENRE=Chicago Blues
TTITLE0=Mean Old World
TTITLE1=All Your Love
TTITLE2=Will My Woman Be Home Tonight?
TTITLE3=Everyday I Have The Blues
TTITLE4=Lookin' Back
TTITLE5=Gambler's Blues
TTITLE6=Three Times A Fool
TTITLE7=So Many Roads
TTITLE8=I Can't Quit You Baby
EXTD=
EXTT0=
EXTT1=
EXTT2=
EXTT3=
EXTT4=
EXTT5=
EXTT6=
EXTT7=
EXTT8=
PLAYORDER=
